<svg width="512" height="512" viewBox="0 0 512 512" fill="none" xmlns="http://www.w3.org/2000/svg">
<path d="M435.276 76.7239C429.689 71.138 422.111 68 414.21 68C406.309 68 398.732 71.138 393.145 76.7239L256.5 213.368L119.855 76.7239C114.268 71.138 106.69 68 98.7897 68C90.8888 68 83.3115 71.138 77.7239 76.7239C72.138 82.3115 69 89.8888 69 97.7897C69 105.69 72.138 113.268 77.7239 118.855L214.368 255.5L77.7239 392.145C72.138 397.732 69 405.309 69 413.21C69 421.111 72.138 428.689 77.7239 434.276C83.3115 439.862 90.8888 443 98.7897 443C106.69 443 114.268 439.862 119.855 434.276L256.5 297.632L393.145 434.276C398.732 439.862 406.309 443 414.21 443C422.111 443 429.689 439.862 435.276 434.276C440.862 428.689 444 421.111 444 413.21C444 405.309 440.862 397.732 435.276 392.145L298.632 255.5L435.276 118.855C440.862 113.268 444 105.69 444 97.7897C444 89.8888 440.862 82.3115 435.276 76.7239Z" fill="black"/>
</svg>
